<svg width="48" height="48" viewBox="0 0 48 48" fill="none" xmlns="http://www.w3.org/2000/svg">
<path d="M4 40V30.6C4 29.8 4.21667 29.0747 4.65 28.424C5.08333 27.7733 5.66667 27.282 6.4 26.95L12 24.45V20.45C12 19.6833 12.2 18.992 12.6 18.376C13 17.76 13.5333 17.268 14.2 16.9L22 13V10H20C19.4333 10 18.9587 9.80801 18.576 9.42401C18.1933 9.04001 18.0013 8.56534 18 8.00001C17.9987 7.43467 18.1907 6.96001 18.576 6.57601C18.9613 6.19201 19.436 6.00001 20 6.00001H22V4.00001C22 3.43334 22.192 2.95867 22.576 2.57601C22.96 2.19334 23.4347 2.00134 24 2.00001C24.5653 1.99867 25.0407 2.19067 25.426 2.57601C25.8113 2.96134 26.0027 3.43601 26 4.00001V6.00001H28C28.5667 6.00001 29.042 6.19201 29.426 6.57601C29.81 6.96001 30.0013 7.43467 30 8.00001C29.9987 8.56534 29.8067 9.04067 29.424 9.42601C29.0413 9.81134 28.5667 10.0027 28 10H26V13L33.8 16.9C34.4667 17.2667 35 17.7587 35.4 18.376C35.8 18.9933 36 19.6847 36 20.45V24.45L41.6 26.95C42.3333 27.2833 42.9167 27.7753 43.35 28.426C43.7833 29.0767 44 29.8013 44 30.6V40C44 41.1 43.6087 42.042 42.826 42.826C42.0433 43.61 41.1013 44.0013 40 44H28C27.4333 44 26.9587 43.808 26.576 43.424C26.1933 43.04 26.0013 42.5653 26 42V36C26 35.4333 25.808 34.9587 25.424 34.576C25.04 34.1933 24.5653 34.0013 24 34C23.4347 33.9987 22.96 34.1907 22.576 34.576C22.192 34.9613 22 35.436 22 36V42C22 42.5667 21.808 43.042 21.424 43.426C21.04 43.81 20.5653 44.0013 20 44H8C6.9 44 5.95867 43.6087 5.176 42.826C4.39333 42.0433 4.00133 41.1013 4 40ZM8 40H18V35.9C18 34.2 18.5833 32.7587 19.75 31.576C20.9167 30.3933 22.3333 29.8013 24 29.8C25.6667 29.7987 27.0833 30.3907 28.25 31.576C29.4167 32.7613 30 34.2027 30 35.9V40H40V30.4L32 26.8V20.1L24 16L16 20.1V26.8L8 30.4V40ZM24 27C24.8333 27 25.542 26.7087 26.126 26.126C26.71 25.5433 27.0013 24.8347 27 24C26.9987 23.1653 26.7073 22.4573 26.126 21.876C25.5447 21.2947 24.836 21.0027 24 21C23.164 20.9973 22.456 21.2893 21.876 21.876C21.296 22.4627 21.004 23.1707 21 24C20.996 24.8293 21.288 25.538 21.876 26.126C22.464 26.714 23.172 27.0053 24 27Z" fill="white"/>
</svg>
