<svg width="64" height="37" viewBox="0 0 64 37" fill="none" xmlns="http://www.w3.org/2000/svg">
<g clip-path="url(#clip0_125_349)">
<path d="M27.4916 20.7921L27.1181 6.88856C27.1181 6.4563 26.7696 6.12585 26.3711 6.12585C25.9479 6.12585 25.6241 6.4563 25.6241 6.88856L25.2754 20.7921L25.6241 27.4769C25.6241 27.9092 25.9726 28.2396 26.3711 28.2396C26.7944 28.2396 27.1181 27.9092 27.1181 27.4769L27.4916 20.7921Z" fill="url(#paint0_linear_125_349)"/>
<path d="M24.8026 20.792L24.3793 6.35437C24.3795 6.26088 24.3615 6.16829 24.3265 6.0819C24.2915 5.99551 24.2402 5.91702 24.1754 5.85093C24.1106 5.78483 24.0337 5.73244 23.949 5.69675C23.8644 5.66106 23.7737 5.64278 23.6821 5.64295C23.5904 5.64274 23.4997 5.66101 23.415 5.6967C23.3303 5.73239 23.2533 5.7848 23.1885 5.85093C23.1237 5.91705 23.0723 5.99558 23.0373 6.08202C23.0023 6.16845 22.9844 6.26109 22.9846 6.35462L22.6113 20.7668L22.9848 27.5023C22.9846 27.5958 23.0025 27.6885 23.0375 27.7749C23.0725 27.8614 23.1238 27.9399 23.1886 28.0061C23.2534 28.0722 23.3303 28.1246 23.415 28.1604C23.4997 28.1961 23.5904 28.2144 23.6821 28.2142C23.7737 28.2144 23.8645 28.1961 23.9492 28.1604C24.0339 28.1247 24.1109 28.0723 24.1757 28.0062C24.2405 27.94 24.2919 27.8614 24.3269 27.775C24.3619 27.6885 24.3798 27.5958 24.3796 27.5023L24.8026 20.792Z" fill="url(#paint1_linear_125_349)"/>
<path d="M18.9996 6.45618C18.9746 6.12573 18.7256 5.84631 18.4021 5.84631C18.0786 5.84631 17.8291 6.10047 17.8044 6.45618L17.3809 20.7665L17.8044 27.6038C17.8044 27.9343 18.0784 28.1884 18.4019 28.1884C18.7254 28.1884 18.9749 27.9343 18.9996 27.5786L19.4976 20.741L18.9996 6.45618Z" fill="url(#paint2_linear_125_349)"/>
<path d="M21.6913 5.97317C21.6913 5.61721 21.3925 5.31228 21.0438 5.31228C20.9586 5.3116 20.8741 5.32823 20.7952 5.3612C20.7164 5.39417 20.6447 5.44283 20.5845 5.50433C20.5242 5.56584 20.4765 5.63897 20.4442 5.71946C20.4119 5.79995 20.3956 5.88619 20.3963 5.97317L19.998 20.7663L20.3963 27.5528C20.3963 27.9088 20.6953 28.2137 21.0438 28.2137C21.3925 28.2137 21.6663 27.9341 21.6913 27.5528L22.1395 20.7663L21.6913 5.97317Z" fill="url(#paint3_linear_125_349)"/>
<path d="M8.11813 28.0358C8.31738 28.0358 8.46687 27.8834 8.49162 27.6548L9.13913 20.7664L8.49162 13.6497C8.46662 13.446 8.31738 13.2682 8.11813 13.2682C7.91888 13.2682 7.76963 13.4208 7.74463 13.6494L7.17188 20.7664L7.74463 27.6548C7.74463 27.8834 7.91888 28.0358 8.11813 28.0358Z" fill="url(#paint4_linear_125_349)"/>
<path d="M30.207 20.7919L29.8583 4.27028C29.8583 3.99061 29.709 3.73646 29.4848 3.58387C29.3603 3.50757 29.211 3.43127 29.0365 3.43127C28.8873 3.43127 28.7378 3.48231 28.5883 3.55861C28.3643 3.71094 28.2148 3.9651 28.2148 4.24476V4.39736L27.916 20.7667L28.2148 27.4006V27.4262C28.2148 27.6038 28.2895 27.7819 28.414 27.9089C28.5635 28.0868 28.7875 28.2139 29.0365 28.2139C29.2608 28.2139 29.46 28.1123 29.6093 27.9852C29.7588 27.8326 29.8583 27.6293 29.8583 27.4006L29.8833 26.7397L30.207 20.7919Z" fill="url(#paint5_linear_125_349)"/>
<path d="M11.0807 14.1578C11.0557 13.9037 10.8814 13.7258 10.6572 13.7258C10.4329 13.7258 10.2339 13.9037 10.2339 14.1578L9.71094 20.7668L10.2339 27.7057C10.2589 27.9599 10.4332 28.1377 10.6572 28.1377C10.8814 28.1377 11.0807 27.9599 11.0807 27.7057L11.6782 20.7665L11.0807 14.1578Z" fill="url(#paint6_linear_125_349)"/>
<path d="M13.223 9.53162C12.974 9.53162 12.75 9.73499 12.75 10.0147L12.252 20.7663L12.7497 27.7055C12.7747 27.9852 12.9737 28.1883 13.2227 28.1883C13.4717 28.1883 13.696 27.9852 13.696 27.7055L14.2687 20.7663L13.696 10.0147C13.696 9.76051 13.4717 9.53162 13.2227 9.53162" fill="url(#paint7_linear_125_349)"/>
<path d="M16.3109 27.7057L16.8339 20.792L16.3109 7.57459C16.2859 7.26966 16.0619 7.04077 15.7632 7.04077C15.4642 7.04077 15.2402 7.26966 15.2152 7.57459L14.7422 20.792L15.2152 27.7057C15.2152 28.0106 15.4642 28.2395 15.7632 28.2395C16.0619 28.265 16.2862 28.0106 16.3109 27.7057Z" fill="url(#paint8_linear_125_349)"/>
<path d="M32.1744 2.00832C32.0392 1.92464 31.8841 1.88058 31.7261 1.88098C31.526 1.88247 31.3326 1.9543 31.1784 2.08436C30.9791 2.23695 30.8546 2.4911 30.8546 2.77077V2.87233L30.5059 20.8173L30.6804 24.1218L30.8546 27.3497C30.8546 27.8328 31.2531 28.214 31.7261 28.214C32.1991 28.214 32.5729 27.8073 32.5979 27.3245L32.9714 20.7921L32.5979 2.77077C32.5729 2.44032 32.4234 2.16091 32.1744 2.00832Z" fill="url(#paint9_linear_125_349)"/>
<path d="M0.72225 24.5793C0.84675 24.5793 0.94625 24.4775 0.97125 24.3252L1.519 20.7665L0.97125 17.1571C0.94625 17.0048 0.84675 16.903 0.72225 16.903C0.656292 16.9032 0.593111 16.9301 0.546471 16.9777C0.499832 17.0253 0.473513 17.0898 0.47325 17.1571L0 20.7665L0.47325 24.3252C0.47325 24.4775 0.59775 24.5793 0.72225 24.5793Z" fill="url(#paint10_linear_125_349)"/>
<path d="M3.08791 26.7395C3.21241 26.7395 3.33691 26.6379 3.36166 26.4856L4.08416 20.7664L3.36166 14.9204C3.33666 14.7678 3.23716 14.666 3.08791 14.666C2.96341 14.666 2.83891 14.7678 2.81391 14.9204L2.19141 20.7664L2.81391 26.4856C2.83891 26.6379 2.93841 26.7395 3.08791 26.7395Z" fill="url(#paint11_linear_125_349)"/>
<path d="M5.5775 27.782C5.75175 27.782 5.87625 27.6549 5.90125 27.4516L6.57375 20.7666L5.90125 13.8274C5.87625 13.6495 5.75175 13.4969 5.5775 13.4969C5.40325 13.4969 5.27875 13.624 5.25375 13.8274L4.65625 20.7666L5.25375 27.4516C5.27875 27.6294 5.40325 27.782 5.5775 27.782Z" fill="url(#paint12_linear_125_349)"/>
<path d="M55.9075 12.2513C54.8367 12.2513 53.8157 12.4802 52.8695 12.8615C52.247 5.66814 46.32 0 39.0982 0C37.3854 0.00150557 35.6879 0.329048 34.0927 0.965828C33.4952 1.19472 33.3457 1.44887 33.3457 1.90639V27.2989C33.3457 27.7819 33.7192 28.1631 34.1925 28.2139H55.9325C60.2655 28.2139 63.777 24.6808 63.777 20.2581C63.752 15.8355 60.2407 12.2513 55.9075 12.2513Z" fill="url(#paint13_linear_125_349)"/>
<path d="M6.24952 33.0432C5.32827 32.8146 5.07927 32.7128 5.07927 32.3316C5.07927 32.0774 5.27852 31.7977 5.90102 31.7977C6.42402 31.7977 6.84727 32.0266 7.22102 32.4076L8.06751 31.5691C7.51952 30.9845 6.84727 30.6285 5.95077 30.6285C4.80527 30.6285 3.88377 31.2894 3.88377 32.3571C3.88377 33.5263 4.63102 33.882 5.70177 34.1109C6.79752 34.365 6.99677 34.5429 6.99677 34.9241C6.99677 35.3816 6.67302 35.5595 5.97577 35.5595C5.42777 35.5595 4.90477 35.3564 4.48152 34.8733L3.63477 35.6358C4.08302 36.2967 4.92977 36.7034 5.87602 36.7034C7.46977 36.7034 8.14227 35.941 8.14227 34.8226C8.19202 33.5771 7.17077 33.2466 6.24952 33.0432ZM11.604 30.6541C10.0103 30.6541 9.08877 31.8993 9.08877 33.7041C9.08877 35.509 10.035 36.7542 11.6038 36.7542C13.1725 36.7542 14.119 35.509 14.119 33.7041C14.119 31.8993 13.1728 30.6541 11.604 30.6541ZM11.604 35.5597C10.6575 35.5597 10.284 34.7463 10.284 33.6786C10.284 32.611 10.6825 31.798 11.604 31.798C12.5503 31.798 12.924 32.6112 12.924 33.6786C12.924 34.7463 12.5253 35.5597 11.604 35.5597ZM18.8008 34.0601C18.8008 35.0004 18.3525 35.585 17.6055 35.585C16.8585 35.585 16.4103 34.9751 16.4103 34.0346V30.7301H15.2398V34.0601C15.2398 35.7884 16.186 36.7542 17.5805 36.7542C19.0498 36.7542 19.9215 35.7631 19.9215 34.0601V30.7556H18.751V34.0601H18.8008ZM24.9518 33.2466C24.9518 33.5771 24.9768 34.3143 24.9768 34.5429C24.9018 34.3905 24.7028 34.0854 24.5783 33.882L22.5113 30.7556H21.3908V36.6782H22.5363V34.0601C22.5363 33.7297 22.5113 32.9925 22.5113 32.7638C22.5863 32.9162 22.7853 33.2211 22.9098 33.4247L25.0265 36.6527H26.0725V30.7301H24.9265V33.2466H24.9518ZM29.4093 30.7304H27.5915V36.6527H29.3098C30.804 36.6527 32.2733 35.7631 32.2733 33.7041C32.2733 31.5183 31.053 30.7304 29.4093 30.7304ZM29.3098 35.5087H28.737V31.8996H29.3595C30.5798 31.8996 31.1028 32.5094 31.1028 33.7041C31.1028 34.7718 30.53 35.5087 29.3098 35.5087ZM35.8593 31.8233C36.3823 31.8233 36.7058 32.0519 36.93 32.4586L38.0008 31.9503C37.6273 31.1879 36.9798 30.6285 35.884 30.6285C34.365 30.6285 33.319 31.874 33.319 33.6786C33.319 35.5342 34.34 36.7289 35.859 36.7289C36.905 36.7289 37.6023 36.2206 38.0008 35.3816L37.0295 34.7973C36.7308 35.3309 36.407 35.5597 35.884 35.5597C35.0125 35.5597 34.5145 34.7463 34.5145 33.6786C34.5145 32.5857 35.0125 31.8233 35.8593 31.8233ZM40.1673 30.7304H38.997V36.6527H42.4833V35.4835H40.1673V30.7304ZM45.5463 30.6538C43.9525 30.6538 43.0313 31.8996 43.0313 33.7041C43.0313 35.5087 43.9775 36.7542 45.5463 36.7542C47.14 36.7542 48.0615 35.509 48.0615 33.7041C48.0615 31.8993 47.14 30.6541 45.5465 30.6541M45.5465 35.56C44.6003 35.56 44.2265 34.7465 44.2265 33.6789C44.2265 32.6112 44.6253 31.7983 45.5465 31.7983C46.493 31.7983 46.8665 32.6115 46.8665 33.6789C46.8665 34.7465 46.493 35.56 45.5465 35.56ZM52.7435 34.0604C52.7435 35.0007 52.2953 35.5853 51.5483 35.5853C50.801 35.5853 50.3528 34.9754 50.3528 34.0348V30.7304H49.1825V34.0604C49.1825 35.7886 50.1288 36.7545 51.5233 36.7545C52.9925 36.7545 53.864 35.7634 53.864 34.0604V30.7559H52.6938V34.0604H52.7435ZM57.176 30.7304H55.3583V36.6529H57.0765C58.5708 36.6529 60.04 35.7634 60.04 33.7044C60.04 31.5186 58.8198 30.7306 57.1763 30.7306M57.0768 35.5092H56.529V31.9001H57.1515C58.3715 31.9001 58.8698 32.5099 58.8698 33.7046C58.8698 34.7723 58.2973 35.5092 57.0768 35.5092Z" fill="#F04923"/>
</g>
<defs>
<linearGradient id="paint0_linear_125_349" x1="135.465" y1="-606.447" x2="135.465" y2="2219.36" gradientUnits="userSpaceOnUse">
<stop stop-color="#F6871F"/>
<stop offset="0.2393" stop-color="#F57E20"/>
<stop offset="0.6262" stop-color="#F36621"/>
<stop offset="1" stop-color="#F04923"/>
</linearGradient>
<linearGradient id="paint1_linear_125_349" x1="132.63" y1="-558.639" x2="132.63" y2="2267.17" gradientUnits="userSpaceOnUse">
<stop stop-color="#F6871F"/>
<stop offset="0.2393" stop-color="#F57E20"/>
<stop offset="0.6262" stop-color="#F36621"/>
<stop offset="1" stop-color="#F04923"/>
</linearGradient>
<linearGradient id="paint2_linear_125_349" x1="123.284" y1="-578.758" x2="123.284" y2="2247.01" gradientUnits="userSpaceOnUse">
<stop stop-color="#F6871F"/>
<stop offset="0.2393" stop-color="#F57E20"/>
<stop offset="0.6262" stop-color="#F36621"/>
<stop offset="1" stop-color="#F04923"/>
</linearGradient>
<linearGradient id="paint3_linear_125_349" x1="126.936" y1="-525.911" x2="126.936" y2="2299.88" gradientUnits="userSpaceOnUse">
<stop stop-color="#F6871F"/>
<stop offset="0.2393" stop-color="#F57E20"/>
<stop offset="0.6262" stop-color="#F36621"/>
<stop offset="1" stop-color="#F04923"/>
</linearGradient>
<linearGradient id="paint4_linear_125_349" x1="104.6" y1="-1313.55" x2="104.6" y2="1512.26" gradientUnits="userSpaceOnUse">
<stop stop-color="#F6871F"/>
<stop offset="0.2393" stop-color="#F57E20"/>
<stop offset="0.6262" stop-color="#F36621"/>
<stop offset="1" stop-color="#F04923"/>
</linearGradient>
<linearGradient id="paint5_linear_125_349" x1="142.812" y1="-339.709" x2="142.812" y2="2486.13" gradientUnits="userSpaceOnUse">
<stop stop-color="#F6871F"/>
<stop offset="0.2393" stop-color="#F57E20"/>
<stop offset="0.6262" stop-color="#F36621"/>
<stop offset="1" stop-color="#F04923"/>
</linearGradient>
<linearGradient id="paint6_linear_125_349" x1="107.403" y1="-1358.83" x2="107.403" y2="1466.96" gradientUnits="userSpaceOnUse">
<stop stop-color="#F6871F"/>
<stop offset="0.2393" stop-color="#F57E20"/>
<stop offset="0.6262" stop-color="#F36621"/>
<stop offset="1" stop-color="#F04923"/>
</linearGradient>
<linearGradient id="paint7_linear_125_349" x1="112.275" y1="-943.638" x2="112.275" y2="1882.16" gradientUnits="userSpaceOnUse">
<stop stop-color="#F6871F"/>
<stop offset="0.2393" stop-color="#F57E20"/>
<stop offset="0.6262" stop-color="#F36621"/>
<stop offset="1" stop-color="#F04923"/>
</linearGradient>
<linearGradient id="paint8_linear_125_349" x1="120.196" y1="-697.048" x2="120.196" y2="2128.78" gradientUnits="userSpaceOnUse">
<stop stop-color="#F6871F"/>
<stop offset="0.2393" stop-color="#F57E20"/>
<stop offset="0.6262" stop-color="#F36621"/>
<stop offset="1" stop-color="#F04923"/>
</linearGradient>
<linearGradient id="paint9_linear_125_349" x1="153.865" y1="-186.216" x2="153.865" y2="2639.61" gradientUnits="userSpaceOnUse">
<stop stop-color="#F6871F"/>
<stop offset="0.2393" stop-color="#F57E20"/>
<stop offset="0.6262" stop-color="#F36621"/>
<stop offset="1" stop-color="#F04923"/>
</linearGradient>
<linearGradient id="paint10_linear_125_349" x1="76.4437" y1="-1673.42" x2="76.4437" y2="1152.44" gradientUnits="userSpaceOnUse">
<stop stop-color="#F6871F"/>
<stop offset="0.2393" stop-color="#F57E20"/>
<stop offset="0.6262" stop-color="#F36621"/>
<stop offset="1" stop-color="#F04923"/>
</linearGradient>
<linearGradient id="paint11_linear_125_349" x1="95.2371" y1="-1451.98" x2="95.2371" y2="1373.88" gradientUnits="userSpaceOnUse">
<stop stop-color="#F6871F"/>
<stop offset="0.2393" stop-color="#F57E20"/>
<stop offset="0.6262" stop-color="#F36621"/>
<stop offset="1" stop-color="#F04923"/>
</linearGradient>
<linearGradient id="paint12_linear_125_349" x1="101.34" y1="-1336.21" x2="101.34" y2="1489.63" gradientUnits="userSpaceOnUse">
<stop stop-color="#F6871F"/>
<stop offset="0.2393" stop-color="#F57E20"/>
<stop offset="0.6262" stop-color="#F36621"/>
<stop offset="1" stop-color="#F04923"/>
</linearGradient>
<linearGradient id="paint13_linear_125_349" x1="1552.81" y1="0" x2="1552.81" y2="2821.87" gradientUnits="userSpaceOnUse">
<stop stop-color="#F6871F"/>
<stop offset="0.2402" stop-color="#F57E20"/>
<stop offset="0.6306" stop-color="#F36621"/>
<stop offset="1" stop-color="#F04923"/>
</linearGradient>
<clipPath id="clip0_125_349">
<rect width="64" height="37" fill="white"/>
</clipPath>
</defs>
</svg>
