<svg width="42" height="42" viewBox="0 0 42 42" fill="none" xmlns="http://www.w3.org/2000/svg">
<g clip-path="url(#clip0_125_345)">
<path d="M21 0C9.40209 0 0 9.40226 0 21C0 32.5986 9.40226 42 21 42C32.5987 42 42 32.5986 42 21C42 9.40308 32.5987 0.00114844 20.9997 0.00114844L21 0ZM30.6303 30.2882C30.2541 30.9051 29.4466 31.1007 28.8297 30.722C23.8991 27.7103 17.6923 27.0281 10.3825 28.6983C10.044 28.7754 9.68878 28.7149 9.3949 28.53C9.10102 28.3452 8.89258 28.0513 8.81541 27.7128C8.77698 27.5452 8.77197 27.3717 8.80066 27.2023C8.82935 27.0328 8.89117 26.8706 8.9826 26.725C9.07403 26.5794 9.19327 26.4533 9.33349 26.3539C9.47371 26.2544 9.63216 26.1836 9.79978 26.1455C17.7995 24.3178 24.6611 25.1047 30.1965 28.4876C30.8134 28.8663 31.009 29.6714 30.6303 30.2882ZM33.2007 24.5702C32.7265 25.3404 31.7185 25.5837 30.9487 25.1098C25.304 21.6402 16.6994 20.6353 10.0229 22.662C9.15698 22.9235 8.2425 22.4355 7.97967 21.5711C7.71881 20.7052 8.20706 19.7923 9.07151 19.5292C16.698 17.2149 26.1791 18.336 32.6616 22.3194C33.4313 22.7935 33.6746 23.8014 33.2007 24.5702ZM33.4213 18.6158C26.6531 14.5957 15.4865 14.2259 9.02459 16.1874C7.98689 16.5021 6.88948 15.9162 6.57513 14.8785C6.26062 13.8403 6.84584 12.7437 7.88435 12.4282C15.3021 10.1763 27.6337 10.6116 35.4258 15.2375C36.3613 15.7913 36.6671 16.9969 36.1129 17.9289C35.5614 18.8624 34.3526 19.17 33.4223 18.6158H33.4213Z" fill="#1ED760"/>
</g>
<defs>
<clipPath id="clip0_125_345">
<rect width="42" height="42" fill="white"/>
</clipPath>
</defs>
</svg>
