<svg width="18" height="18" viewBox="0 0 18 18" fill="none" xmlns="http://www.w3.org/2000/svg">
<path d="M9 0C4.05 0 0 4.05 0 9C0 13.95 4.05 18 9 18C13.95 18 18 13.95 18 9C18 4.05 13.995 0 9 0ZM13.1407 13.005C12.9607 13.2743 12.6458 13.365 12.375 13.185C10.26 11.88 7.605 11.6092 4.45425 12.3292C4.14075 12.4207 3.87 12.195 3.78 11.925C3.69 11.6093 3.915 11.34 4.185 11.25C7.605 10.4843 10.575 10.8 12.915 12.24C13.23 12.375 13.2743 12.7343 13.1407 13.005ZM14.2208 10.53C13.995 10.845 13.59 10.98 13.2743 10.755C10.845 9.27 7.155 8.82 4.32 9.72C3.96075 9.81 3.555 9.63 3.465 9.27C3.375 8.91 3.555 8.50425 3.915 8.41425C7.2 7.425 11.25 7.92075 14.04 9.63C14.3107 9.76575 14.445 10.215 14.2208 10.53ZM14.3107 8.01C11.43 6.3 6.615 6.12 3.87 6.97575C3.42 7.11 2.97 6.84 2.835 6.435C2.7 5.98425 2.97 5.535 3.375 5.39925C6.57 4.45425 11.835 4.63425 15.1658 6.615C15.57 6.84 15.705 7.38 15.48 7.785C15.2557 8.10075 14.715 8.23425 14.3107 8.01Z" fill="white"/>
</svg>
