<svg width="40" height="40" viewBox="0 0 40 40" fill="none" xmlns="http://www.w3.org/2000/svg">
<path fill-rule="evenodd" clip-rule="evenodd" d="M28.25 6.66668C28.5536 6.35235 28.7216 5.93134 28.7178 5.49435C28.714 5.05735 28.5387 4.63933 28.2297 4.33032C27.9207 4.02131 27.5027 3.84602 27.0657 3.84223C26.6287 3.83843 26.2077 4.00642 25.8933 4.31002L19.41 10.7917C19.2537 10.9479 19.0418 11.0357 18.8208 11.0357C18.5999 11.0357 18.3879 10.9479 18.2317 10.7917L14.1067 6.66668C13.9529 6.5075 13.769 6.38053 13.5657 6.29318C13.3623 6.20583 13.1436 6.15986 12.9223 6.15793C12.701 6.15601 12.4816 6.19818 12.2767 6.28198C12.0719 6.36578 11.8858 6.48954 11.7293 6.64602C11.5729 6.80251 11.4491 6.9886 11.3653 7.19343C11.2815 7.39825 11.2393 7.61772 11.2412 7.83902C11.2432 8.06032 11.2891 8.27902 11.3765 8.48236C11.4638 8.6857 11.5908 8.86961 11.75 9.02335L14.3933 11.6667H8.33333C7.44928 11.6667 6.60143 12.0179 5.97631 12.643C5.35119 13.2681 5 14.116 5 15V31.6667C5 32.5507 5.35119 33.3986 5.97631 34.0237C6.60143 34.6488 7.44928 35 8.33333 35H31.6667C32.5507 35 33.3986 34.6488 34.0237 34.0237C34.6488 33.3986 35 32.5507 35 31.6667V15C35 14.116 34.6488 13.2681 34.0237 12.643C33.3986 12.0179 32.5507 11.6667 31.6667 11.6667H23.25L28.25 6.66668ZM15.7717 19.8667C15.8018 19.5952 15.8953 19.3346 16.0447 19.106C16.1941 18.8773 16.3952 18.687 16.6317 18.5504C16.8682 18.4138 17.1336 18.3347 17.4063 18.3196C17.679 18.3045 17.9515 18.3537 18.2017 18.4633C18.7933 18.72 19.915 19.2417 21.315 20.05C22.715 20.8583 23.73 21.57 24.2483 21.9533C24.4682 22.1152 24.6469 22.3265 24.77 22.5701C24.8932 22.8137 24.9573 23.0829 24.9573 23.3558C24.9573 23.6288 24.8932 23.898 24.77 24.1416C24.6469 24.3852 24.4682 24.5965 24.2483 24.7583C23.7317 25.14 22.725 25.845 21.315 26.6583C19.9033 27.475 18.79 27.9917 18.2017 28.2483C17.9515 28.358 17.679 28.4072 17.4063 28.3921C17.1336 28.377 16.8682 28.2979 16.6317 28.1613C16.3952 28.0247 16.1941 27.8344 16.0447 27.6057C15.8953 27.3771 15.8018 27.1165 15.7717 26.845C15.6469 25.6859 15.5863 24.5208 15.59 23.355C15.59 21.745 15.7 20.5083 15.7733 19.8683" fill="#DA0B0B"/>
</svg>
