<svg width="39" height="39" viewBox="0 0 39 39" fill="none" xmlns="http://www.w3.org/2000/svg">
<path fill-rule="evenodd" clip-rule="evenodd" d="M38.5 19.25C38.5 29.8813 29.8813 38.5 19.25 38.5C8.61875 38.5 0 29.8813 0 19.25C0 8.61875 8.61875 0 19.25 0C29.8813 0 38.5 8.61875 38.5 19.25ZM19.25 10.5C16.9294 10.5 14.7038 11.4219 13.0628 13.0628C11.4219 14.7038 10.5 16.9294 10.5 19.25C10.5 21.5706 11.4219 23.7962 13.0628 25.4372C14.7038 27.0781 16.9294 28 19.25 28C21.5706 28 23.7962 27.0781 25.4372 25.4372C27.0781 23.7962 28 21.5706 28 19.25C28 16.9294 27.0781 14.7038 25.4372 13.0628C23.7962 11.4219 21.5706 10.5 19.25 10.5ZM8.75 19.25C8.75 16.4652 9.85625 13.7945 11.8254 11.8254C13.7945 9.85625 16.4652 8.75 19.25 8.75C22.0348 8.75 24.7055 9.85625 26.6746 11.8254C28.6438 13.7945 29.75 16.4652 29.75 19.25C29.75 22.0348 28.6438 24.7055 26.6746 26.6746C24.7055 28.6438 22.0348 29.75 19.25 29.75C16.4652 29.75 13.7945 28.6438 11.8254 26.6746C9.85625 24.7055 8.75 22.0348 8.75 19.25ZM24.5 19.25L15.75 14V24.5L24.5 19.25Z" fill="#EE1A26"/>
</svg>
